<svg fill="none" height="51" viewBox="0 0 160 51" width="160" xmlns="http://www.w3.org/2000/svg" xmlns:xlink="http://www.w3.org/1999/xlink"><clipPath id="a"><path d="m0 0h160v50.1333h-160z"/></clipPath><g clip-path="url(#a)"><path d="m84.3245 12.5961c0 1.8066-1.4496 3.2619-3.249 3.2619s-3.249-1.4553-3.249-3.2619 1.3996-3.26197 3.249-3.26197c1.8494.05019 3.249 1.50547 3.249 3.26197zm-13.3958 6.574v.8029s-1.5495-2.0073-4.8485-2.0073c-5.4483 0-9.697 4.1652-9.697 9.9363 0 5.721 4.1987 9.9364 9.697 9.9364 3.3489 0 4.8485-2.0576 4.8485-2.0576v.8532c0 .4014.2999.7025.6998.7025h4.0487v-18.869s-3.6989 0-4.0487 0c-.3999 0-.6998.3513-.6998.7026zm0 12.0942c-.7498 1.1041-2.2493 2.0576-4.0488 2.0576-3.199 0-5.6482-2.0074-5.6482-5.4199 0-3.4124 2.4492-5.4198 5.6482-5.4198 1.7495 0 3.349 1.0037 4.0488 2.0575zm7.7475-12.7968h4.7986v18.869h-4.7986zm71.6778-.5018c-3.299 0-4.849 2.0073-4.849 2.0073v-10.58868h-4.798v27.95218h4.049c.399 0 .699-.3513.699-.7025v-.8532s1.55 2.0576 4.849 2.0576c5.448 0 9.697-4.2154 9.697-9.9364 0-5.7209-4.249-9.9363-9.647-9.9363zm-.8 15.306c-1.849 0-3.299-.9535-4.049-2.0576v-6.7245c.75-1.0037 2.35-2.0576 4.049-2.0576 3.199 0 5.648 2.0074 5.648 5.4198 0 3.4125-2.449 5.4199-5.648 5.4199zm-11.346-7.1261v11.2411h-4.799v-10.6891c0-3.1113-1-4.3659-3.699-4.3659-1.449 0-2.949.7527-3.898 1.8568v13.148h-4.799v-18.869h3.799c.4 0 .7.3513.7.7026v.8029c1.399-1.4553 3.249-2.0073 5.098-2.0073 2.099 0 3.849.6022 5.248 1.8066 1.7 1.4051 2.35 3.2117 2.35 6.3733zm-28.841-8.1799c-3.299 0-4.849 2.0073-4.849 2.0073v-10.58868h-4.7983v27.95218h4.0483c.4 0 .7-.3513.7-.7025v-.8532s1.55 2.0576 4.849 2.0576c5.448 0 9.697-4.2154 9.697-9.9364.05-5.7209-4.199-9.9363-9.647-9.9363zm-.8 15.306c-1.85 0-3.299-.9535-4.049-2.0576v-6.7245c.75-1.0037 2.349-2.0576 4.049-2.0576 3.199 0 5.648 2.0074 5.648 5.4198 0 3.4125-2.449 5.4199-5.648 5.4199zm-12.996-15.306c1.4495 0 2.1993.2509 2.1993.2509v4.4663s-3.9988-1.3549-6.498 1.5056v13.1982h-4.7985v-18.9192h4.0487c.3999 0 .6998.3513.6998.7026v.8029c.8997-1.0538 2.8491-2.0073 4.3487-2.0073zm-49.8345 17.6646c-.2499-.6022-.4998-1.2546-.7497-1.8066-.3999-.9033-.7998-1.7564-1.1497-2.5594l-.0499-.0502c-3.449-7.5275-7.1478-15.1554-11.0466-22.6829l-.1499-.3011c-.3999-.75276-.7998-1.55569-1.1997-2.35863-.4998-.9033-.9997-1.85679-1.7994-2.76009-1.5995-2.00734-3.8988-3.11138-6.348-3.11138-2.4992 0-4.7485 1.10404-6.398 3.01101-.7498.9033-1.2996 1.85679-1.7995 2.76009-.3998.80294-.7997 1.60588-1.1996 2.35863l-.1499.3011c-3.84884 7.52757-7.59767 15.15547-11.04659 22.68297l-.04998.1003c-.34989.803-.74977 1.6561-1.14964 2.5594-.24993.552-.499848 1.1542-.74977 1.8066-.6497966 1.8568-.849734 3.6132-.599812 5.4198.549828 3.7638 3.049042 6.9254 6.497972 8.3305 1.29959.552 2.64917.8029 4.04872.8029.3999 0 .8997-.0502 1.2996-.1003 1.6495-.2008 3.349-.7528 4.9984-1.7063 2.0494-1.1542 3.9988-2.8103 6.1981-5.2191 2.1993 2.4088 4.1987 4.0649 6.1981 5.2191 1.6495.9535 3.3489 1.5055 4.9984 1.7063.3999.0501.8997.1003 1.2996.1003 1.3996 0 2.7991-.2509 4.0487-.8029 3.4989-1.4051 5.9482-4.6169 6.498-8.3305.3999-1.7564.1999-3.5128-.4499-5.3696zm-22.5429 2.6095c-2.6992-3.4124-4.4486-6.6242-5.0484-9.3341-.25-1.1542-.2999-2.1579-.15-3.0612.1-.8029.3999-1.5055.7998-2.1077.9497-1.355 2.5492-2.2081 4.3986-2.2081s3.4989.803 4.3986 2.2081c.3999.6022.6998 1.3048.7998 2.1077.1499.9033.0999 1.9572-.15 3.0612-.5998 2.6597-2.3493 5.8715-5.0484 9.3341zm19.9438 2.3587c-.3499 2.6095-2.0994 4.8678-4.5486 5.8714-1.1996.5019-2.4992.6524-3.7988.5019-1.2496-.1506-2.4993-.5521-3.7988-1.3048-1.7995-1.0037-3.5989-2.5594-5.6983-4.8678 3.299-4.0649 5.2984-7.7784 6.0481-11.0906.3499-1.5557.3999-2.9608.25-4.2656-.2-1.2545-.6498-2.4088-1.3496-3.4124-1.5495-2.2583-4.1487-3.5631-7.0478-3.5631s-5.4983 1.355-7.0478 3.5631c-.6998 1.0036-1.1496 2.1579-1.3496 3.4124-.1999 1.3048-.1499 2.7601.2499 4.2656.7498 3.3122 2.7992 7.0759 6.0481 11.1408-2.0493 2.3084-3.8987 3.8641-5.6982 4.8678-1.2996.7527-2.5492 1.1542-3.7988 1.3047-1.3496.1506-2.64916-.0501-3.7988-.5018-2.44923-1.0037-4.19869-3.2619-4.54858-5.8715-.14995-1.2545-.04998-2.5091.44986-3.9143.14996-.5018.39988-1.0036.6498-1.6058.34989-.803.74977-1.6561 1.14964-2.5092l.04999-.1004c3.44892-7.4773 7.14779-15.1052 10.99659-22.53238l.1499-.3011c.3999-.75276.7998-1.55569 1.1996-2.30844.3999-.80294.8498-1.55569 1.3996-2.20808 1.0497-1.2044 2.4492-1.85679 3.9988-1.85679 1.5495 0 2.949.65239 3.9987 1.85679.5498.65239.9997 1.40514 1.3996 2.20808.3998.75275.7997 1.55568 1.1996 2.30844l.15.3011c3.7988 7.47738 7.4976 15.10528 10.9465 22.58258v.0502c.3999.8029.7498 1.7062 1.1497 2.5092.2499.6022.4998 1.104.6498 1.6058.3998 1.3048.5498 2.5594.3499 3.8642z" fill="#adb5bd"/></g></svg>