<svg fill="none" height="50" viewBox="0 0 167 50" width="167" xmlns="http://www.w3.org/2000/svg" xmlns:xlink="http://www.w3.org/1999/xlink"><clipPath id="a"><path d="m0 0h166.113v50h-166.113z"/></clipPath><g clip-path="url(#a)" clip-rule="evenodd" fill="#adb5bd" fill-rule="evenodd"><path d="m103.053 39.1015c-9.6528 7.1068-23.6444 10.8985-35.6909 10.8985-16.8912 0-32.0975-6.2401-43.6017-16.6185-.9039-.8161-.094-1.9284.9906-1.2928 12.4153 7.2151 27.7662 11.5557 43.6234 11.5557 10.6943 0 22.4588-2.2101 33.2756-6.7962 1.635-.6934 3.001 1.0689 1.403 2.2533"/><path d="m107.066 34.5154c-1.229-1.5745-8.156-.7439-11.2652-.3756-.9473.1156-1.0919-.7077-.2387-1.3 5.5169-3.8784 14.5699-2.7589 15.6259-1.4589 1.056 1.3073-.275 10.3712-5.459 14.6974-.796.6644-1.555.3106-1.201-.5706 1.164-2.9033 3.775-9.4106 2.538-10.9923"/><path d="m96.0177 5.46009v-3.77004c0-.57056.4338-.95334.9544-.95334h16.8989c.542 0 .976.39.976.95334v3.22837c-.008.54167-.463 1.24946-1.273 2.36891l-8.756 12.48737c3.253-.0795 6.688.4044 9.638 2.0656.665.3755.846.9244.897 1.4661v4.0228c0 .5489-.608 1.1917-1.244.8595-5.199-2.7228-12.104-3.019-17.8527.0288-.5857.3178-1.2003-.3177-1.2003-.8666v-3.8206c0-.6139.0072-1.6612.6218-2.5928l10.1452-14.53129h-8.8292c-.5423 0-.9761-.38278-.9761-.94612"/><path d="m34.3752 28.9831h-5.1411c-.4917-.0361-.8822-.4044-.9183-.8739v-26.35413c0-.52723.441-.946129.9906-.946129h4.794c.4989.021652.8966.404449.9328.881119v3.44504h.094c1.2509-3.32948 3.6009-4.882277 6.768-4.882277 3.2177 0 5.2279 1.552797 6.674 4.882277 1.2437-3.32948 4.0709-4.882277 7.1007-4.882277 2.1547 0 4.512.888347 5.9509 2.881697 1.6269 2.21724 1.2943 5.43839 1.2943 8.26228l-.0072 16.633c0 .5272-.4411.9533-.9906.9533h-5.1339c-.5134-.0361-.9255-.4478-.9255-.9533v-13.9679c0-1.1123.1012-3.8856-.1447-4.9401-.3832-1.76946-1.5329-2.2678-3.0224-2.2678-1.2437 0-2.5453.83056-3.0731 2.15947-.5279 1.32893-.4772 3.55333-.4772 5.04843v13.9679c0 .5272-.4411.9533-.9907.9533h-5.1338c-.5206-.0361-.9256-.4478-.9256-.9533l-.0072-13.9679c0-2.9395.4845-7.26568-3.1671-7.26568-3.6949 0-3.5503 4.21778-3.5503 7.26568v13.9679c0 .5272-.4411.9533-.9906.9533"/><path d="m129.395.252823c7.628 0 11.757 6.543397 11.757 14.863477 0 8.0384-4.562 14.4157-11.757 14.4157-7.491 0-11.569-6.5434-11.569-14.6974 0-8.20449 4.129-14.581777 11.569-14.581777zm.043 5.380617c-3.789 0-4.027 5.15666-4.027 8.37066 0 3.2211-.051 10.0967 3.984 10.0967 3.984 0 4.172-5.5467 4.172-8.9267 0-2.2245-.094-4.8823-.766-6.9912-.579-1.83446-1.728-2.54946-3.363-2.54946"/><path d="m151.044 28.9831h-5.119c-.514-.0361-.926-.4478-.926-.9533l-.007-26.36141c.043-.48389.47-.859449.99-.859449h4.766c.448.021652.817.324999.918.736679v4.03003h.094c1.439-3.60392 3.456-5.322827 7.006-5.322827 2.307 0 4.556.830567 6.002 3.105587 1.345 2.10891 1.345 5.65506 1.345 8.20449v16.5897c-.058.4622-.485.8305-.991.8305h-5.155c-.47-.0361-.861-.3828-.911-.8305v-14.3146c0-2.8817.332-7.09956-3.218-7.09956-1.251 0-2.401.83779-2.972 2.10891-.723 1.61055-.817 3.21395-.817 4.99065v14.1918c-.007.5272-.455.9533-1.005.9533"/><path d="m82.5467 16.3946c0 2.0006.0506 3.669-.9617 5.4457-.8171 1.4444-2.1186 2.3328-3.5575 2.3328-1.974 0-3.131-1.5023-3.131-3.7195 0-4.3767 3.9263-5.1712 7.6502-5.1712zm5.1845 12.5163c-.3399.3033-.8316.325-1.2148.1228-1.7065-1.4156-2.0174-2.0728-2.9502-3.4234-2.82 2.8745-4.8229 3.7339-8.4744 3.7339-4.3313 0-7.6936-2.665-7.6936-8.0023 0-4.1672 2.256-7.0056 5.4809-8.3923 2.7911-1.2278 6.6885-1.4444 9.6676-1.7839v-.6644c0-1.22062.094-2.66508-.6291-3.71953-.6218-.94612-1.8221-1.33613-2.8851-1.33613-1.9595 0-3.7021 1.0039-4.1287 3.08392-.0868.46223-.4267.91724-.8967.9389l-4.982-.53445c-.4194-.09388-.8894-.43334-.7664-1.07612 1.1424-6.03784 6.6089-7.85785948 11.4969-7.85785948 2.5019 0 5.7702.66445248 7.7442 2.55668948 2.5018 2.33281 2.2632 5.44562 2.2632 8.83288v8.0023c0 2.405.9979 3.4595 1.9379 4.7595.3254.4622.3977 1.0183-.0217 1.365-1.0485.8739-2.914 2.4989-3.9408 3.4089z"/><path d="m15.1485 16.3948c0 2.0006.0506 3.669-.9617 5.4456-.8171 1.4445-2.1114 2.3328-3.5575 2.3328-1.97405 0-3.12374-1.5022-3.12374-3.7194 0-4.3768 3.92634-5.1712 7.64294-5.1712zm5.1845 12.5163c-.3399.3033-.8316.325-1.2148.1227-1.7065-1.4155-2.0102-2.0727-2.9502-3.4233-2.82 2.8745-4.8157 3.7339-8.47444 3.7339-4.32402 0-7.69356-2.665-7.69356-8.0023 0-4.1673 2.26324-7.0056 5.48094-8.3923 2.79108-1.2278 6.68846-1.4445 9.66756-1.7839v-.6645c0-1.22054.094-2.665-.6218-3.71945-.6291-.94612-1.8294-1.33612-2.8851-1.33612-1.95957 0-3.70942 1.00389-4.13604 3.08392-.08677.46223-.42662.91723-.88939.9389l-4.98924-.53446c-.41939-.09388-.88216-.43333-.766467-1.07611 1.149697-6.03784 6.608937-7.85786638 11.496937-7.85786638 2.5019 0 5.7702.66445238 7.7442 2.55669638 2.5018 2.3328 2.2632 5.44561 2.2632 8.83289v8.0023c0 2.405.9979 3.4595 1.9379 4.7595.3326.4622.4049 1.0183-.0145 1.365-1.0484.8739-2.914 2.4989-3.9408 3.4089l-.0144-.0145"/></g></svg>