<svg fill="none" height="55" viewBox="0 0 138 55" width="138" xmlns="http://www.w3.org/2000/svg" xmlns:xlink="http://www.w3.org/1999/xlink"><clipPath id="a"><path d="m0 0h137.5v55h-137.5z"/></clipPath><g clip-path="url(#a)" fill="#adb5bd"><path d="m17.8138 12.0255c-9.69181 0-17.7679702 4.1007-17.7679702 16.4722 0 9.801 5.4306302 15.9731 18.0181702 15.9731 14.8162 0 15.766-9.7336 15.766-9.7336h-7.1792s-1.5392 5.2411-9.0247 5.2411c-6.0967 0-10.48172-4.1074-10.48172-9.8645h27.43632v-3.6127c0-5.6956-3.6254-14.4756-16.7669-14.4756zm-.2503 4.6172c5.8035 0 9.7599 3.5458 9.7599 8.8601h-20.02024c0-5.6418 5.16414-8.8601 10.26034-8.8601z"/><path d="m34.5756.0457458v38.2120542c0 2.1691-.1552 5.2147-.1552 5.2147h6.8474s.2458-2.1874.2458-4.1865c0 0 3.383 5.2784 12.5818 5.2784 9.6866 0 16.2664-6.7071 16.2664-16.3163 0-8.9392-6.0437-16.129-16.2508-16.129-9.5582 0-12.5283 5.1476-12.5283 5.1476v-17.2209542zm17.768 16.7997542c6.578 0 10.7609 4.8689 10.7609 11.4026 0 7.0063-4.8311 11.5899-10.714 11.5899-7.0207 0-10.8078-5.467-10.8078-11.5275 0-5.6471 3.3983-11.465 10.7609-11.465z"/><path d="m87.379 12.0255c-14.5806 0-15.5157 7.9621-15.5157 9.2344h7.2574s.3805-4.6484 7.7578-4.6484c4.7939 0 8.5086 2.1884 8.5086 6.3955v1.4975h-8.5086c-11.2958 0-17.2675 3.2955-17.2675 9.9831 0 6.5816 5.5177 10.1626 12.9741 10.1626 10.1619 0 13.4354-5.6 13.4354-5.6 0 2.2274.1722 4.4223.1722 4.4223h6.4513s-.25-2.7207-.25-4.4613v-15.0449c0-9.8647-7.9783-11.9408-15.015-11.9408zm8.0081 16.9714v1.9966c0 2.6042-1.6113 9.0784-11.0972 9.0784-5.1944 0-7.4215-2.5854-7.4215-5.5843 0-5.4556 7.5-5.4907 18.5187-5.4907z"/><path d="m98.4862 13.2747h8.1648l11.717 23.4114 11.69-23.4114h7.396l-21.294 41.6796h-7.758l6.145-11.6188z"/></g></svg>