<svg fill="none" height="35" viewBox="0 0 181 35" width="181" xmlns="http://www.w3.org/2000/svg"><path d="m11.4293 34.4606h-6.79824v-16.9867h-4.63106v-5.5306h4.63088v-3.93532c0-4.66341 2.04825-8.00798 8.82802-8.00798 1.434 0 3.6852.2897 3.6852.2897v5.13539h-2.3645c-2.4093 0-3.35.73456-3.35 2.76536v3.75285h5.6243l-.5009 5.5306h-5.1236zm15.5986-22.9592c-.099 0-.201.0036-.3018.0061-6.3037 0-9.1878 4.7528-9.1878 11.4994 0 8.499 3.7411 11.9005 9.237 11.9005 3.1445 0 5.2104-1.3266 6.4661-3.8023v3.3578h6.466v-22.5172h-6.466v3.4628c-1.0253-2.2279-3.149-3.8807-6.2135-3.9071zm1.6441 5.3207c2.6476 0 4.2367 1.8511 4.2367 4.9996l.0061 3.2158c0 2.1222-1.3125 4.6049-4.2428 4.6049-4.5049 0-4.3846-4.8758-4.3846-6.4997 0-5.4625 2.4002-6.3206 4.3846-6.3206zm13.6468 6.3834c0-2.7363-.1307-11.6895 11.5068-11.6895 4.6715 0 6.6221 1.4889 6.6221 1.4889l-1.5678 4.874s-1.9481-1.0752-4.4865-1.0752c-3.2513 0-5.3259 1.8892-5.3259 5.2131l.0036 2.3835c0 3.1939 2.0017 5.326 5.3289 5.326 2.3126 0 4.444-1.0854 4.444-1.0854l1.5638 4.7723s-1.7835 1.4982-6.5495 1.4982c-11.0807 0-11.5394-8.0328-11.5394-11.7059zm56.0418-11.698c6.3034 0 9.2334 4.7528 9.2334 11.4994 0 8.499-3.741 11.9005-9.2372 11.9005-3.1445 0-5.4689-1.3264-6.7246-3.8023v3.3578l-6.3847-.0025v-33.775753l6.7789-.5926012v15.0114542c.9784-2.6263 4.1937-3.596 6.3344-3.596zm-1.9005 5.3146c-2.6476 0-4.4337 1.8511-4.4337 4.9996l-.0063 3.2158c-.004 2.1222 1.2369 4.6049 4.44 4.6049 4.5049 0 4.3849-4.8758 4.3849-6.4997 0-5.4625-2.4003-6.3206-4.3849-6.3206zm-24.2504-5.2959c-7.1499 0-10.9245 3.9073-10.9245 10.8511v1.29c0 9.0124 5.3008 11.3327 11.6203 11.3327 6.1426 0 8.923-1.7221 8.923-1.7221l-1.2685-4.586s-3.2706 1.3948-6.8417 1.3948c-3.7021 0-5.2943-.9458-5.7024-4.5119h14.3545v-3.6791c0-7.5322-4.2363-10.3697-10.1609-10.3697zm.1723 4.5921c2.4749 0 4.0786 1.5212 3.9905 5.0492h-8.3441c.1447-3.7132 1.8741-5.049 4.3536-5.049zm48.729-4.6231c-7.342 0-11.208 4.1473-11.208 11.5795 0 10.1974 6.663 11.8389 11.22 11.8389 6.671 0 11.109-3.6 11.109-11.7463 0-8.4789-4.99-11.6721-11.121-11.6721zm-.093 5.3454c3.229 0 4.508 2.4219 4.508 5.1788v2.3702c0 3.3397-1.79 5.2714-4.52 5.2714-2.553 0-4.347-1.8069-4.347-5.2714v-2.3702c0-3.6949 2.135-5.1788 4.359-5.1788zm24.719-5.3454c-7.342 0-11.208 4.1473-11.208 11.5795 0 10.1974 6.663 11.8389 11.22 11.8389 6.671 0 11.11-3.6 11.11-11.7463 0-8.4789-4.991-11.6721-11.122-11.6721zm-.092 5.3454c3.228 0 4.507 2.4219 4.507 5.1788v2.3702c0 3.3397-1.79 5.2714-4.52 5.2714-2.553 0-4.347-1.8069-4.347-5.2714v-2.3702c0-3.6949 2.135-5.1788 4.36-5.1788zm13.775 17.62v-33.775953l6.799-.5926012v22.6387542l6.745-10.7875h7.18l-7.037 11.1727 7.308 11.3446h-7.201l-6.995-11.0155v11.0155z" fill="#adb5bd"/></svg>