<svg fill="none" height="77" viewBox="0 0 234 77" width="234" xmlns="http://www.w3.org/2000/svg"><g fill="#adb5bd"><path d="m227.016 46.9394 6.51 4.3398c-2.113 3.1122-7.166 8.4514-15.903 8.4514-10.85 0-18.93-8.3942-18.93-19.0727 0-11.3636 8.166-19.0726 18.016-19.0726 9.908 0 14.761 7.8803 16.332 12.1345l.856 2.17-25.525 10.5642c1.941 3.8259 4.968 5.7675 9.251 5.7675s7.252-2.1129 9.393-5.2821zm-20.015-6.8811 17.046-7.0808c-.942-2.3698-3.74-4.0544-7.081-4.0544-4.254 0-10.164 3.7688-9.965 11.1352z"/><path d="m186.387 2.14139h8.223v55.84751h-8.223z"/><path d="m173.424 23.07h7.938v33.9196c0 14.0761-8.309 19.8722-18.131 19.8722-9.25 0-14.818-6.2244-16.902-11.278l7.28-3.0266c1.314 3.1122 4.483 6.7954 9.622 6.7954 6.31 0 10.193-3.9116 10.193-11.2209v-2.741h-.285c-1.885 2.2842-5.482 4.3399-10.05 4.3399-9.537 0-18.274-8.3086-18.274-19.0156 0-10.764 8.737-19.1583 18.274-19.1583 4.539 0 8.165 2.0272 10.05 4.2542h.285zm.571 17.645c0-6.7382-4.482-11.6491-10.193-11.6491-5.767 0-10.621 4.9109-10.621 11.6491 0 6.6526 4.854 11.4779 10.621 11.4779 5.711.0286 10.193-4.8253 10.193-11.4779z"/><path d="m99.6748 40.5723c0 10.9925-8.5656 19.0727-19.0727 19.0727s-19.0727-8.1088-19.0727-19.0727c0-11.0496 8.5656-19.1013 19.0727-19.1013s19.0727 8.0517 19.0727 19.1013zm-8.3372 0c0-6.8525-4.968-11.5636-10.7355-11.5636s-10.7356 4.7111-10.7356 11.5636c0 6.7953 4.9681 11.5635 10.7356 11.5635s10.7355-4.7682 10.7355-11.5635z"/><path d="m141.332 40.6579c0 10.9925-8.566 19.0727-19.073 19.0727s-19.072-8.0802-19.072-19.0727c0-11.0496 8.565-19.0726 19.072-19.0726s19.073 7.9945 19.073 19.0726zm-8.366 0c0-6.8524-4.968-11.5635-10.735-11.5635-5.768 0-10.736 4.7111-10.736 11.5635 0 6.7954 4.968 11.5636 10.736 11.5636 5.796 0 10.735-4.7968 10.735-11.5636z"/><path d="m30.1794 51.3649c-11.9633 0-21.32831-9.6505-21.32831-21.6138s9.36501-21.6138 21.32831-21.6138c6.4527 0 11.1638 2.5411 14.6471 5.796l5.7389-5.7389c-4.8538-4.65396-11.3351-8.1944-20.386-8.1944-16.3888 0-30.1794 13.3623-30.1794 29.7511s13.7906 29.7511 30.1794 29.7511c8.8511 0 15.5322-2.9123 20.7572-8.3372 5.3678-5.3677 7.0238-12.9054 7.0238-19.0155 0-1.913-.2284-3.8831-.4854-5.3392h-27.2956v7.9374h19.4438c-.571 4.968-2.1414 8.3657-4.4541 10.6784-2.7981 2.8267-7.2236 5.9388-14.9897 5.9388z"/></g></svg>