<svg fill="none" height="45" viewBox="0 0 167 45" width="167" xmlns="http://www.w3.org/2000/svg"><path d="m22.8741 42.0994c-2.5024.4399-5.0489.5718-7.6831.923l-8.0347-23.5545v24.5654c-2.50246.2636-4.78543.6151-7.1563.9667v-45h6.67365l9.13195 25.5326v-25.5326h7.0685zm13.83-25.6199c2.7222 0 6.8931-.1319 9.3956-.1319v7.0311c-3.1174 0-6.7613 0-9.3956.1319v10.4592c4.1271-.2636 8.2541-.6155 12.4249-.7474v6.7672l-19.4498 1.5384v-41.528h19.4498v7.03126h-12.4249zm38.5479-9.44808h-7.288v32.34368c-2.3709 0-4.7418 0-7.0244.0877v-32.43138h-7.2881v-7.03142h21.6008zm11.4151 8.96478h9.6152v7.0311h-9.6152v15.9524h-6.8935v-38.9797h19.6259v7.03126h-12.7324zm24.1479 16.8309c3.995.0877 8.034.3958 11.942.6152v6.9434c-6.279-.3958-12.557-.7907-18.967-.9229v-39.4628h7.025zm17.869 8.042c2.239.1321 4.61.264 6.893.5272v-41.3963h-6.893zm37.67-40.8691-8.913 21.4014 8.913 23.5986c-2.635-.3516-5.269-.835-7.903-1.2745l-5.049-13.0075-5.136 11.9532c-2.547-.4399-5.006-.5718-7.552-.9233l9.044-20.6104-8.166-21.1375h7.551l4.61 11.8213 4.917-11.8213z" fill="#adb5bd"/></svg>